PathFileType	4	(X/Y/Z)	\\147.46.242.158\로컬 디스크 (e)\MOCAP Data\Iguana Capture\iguana\Project 2\Capture day 7\Session 2\Take06.trc
DataRate	CameraRate	NumFrames	NumMarkers	Units	OrigDataRate	OrigDataStartFrame	OrigNumFrames
120.0	120.0	17	23	mm	120.0	97	14620
Frame#	Time	ana:head1			ana:head2			ana:bone1			ana:bone2			ana:bone3			ana:tail1			ana:tail2			ana:tail3			ana:tail4			ana:Rforefoot1			ana:Rforefoot2			ana:Rforefoot3			ana:Lforefoot1			ana:Lforefoot2			ana:Lforefoot3			ana:RhindLeg1			ana:RhindLeg2			ana:RhindLeg3			ana:RhindLeg4			ana:LhindLeg1			ana:LhindLeg2			ana:LhindLeg3			ana:LhindLeg4			
		X1	Y1	Z1	X2	Y2	Z2	X3	Y3	Z3	X4	Y4	Z4	X5	Y5	Z5	X6	Y6	Z6	X7	Y7	Z7	X8	Y8	Z8	X9	Y9	Z9	X10	Y10	Z10	X11	Y11	Z11	X12	Y12	Z12	X13	Y13	Z13	X14	Y14	Z14	X15	Y15	Z15	X16	Y16	Z16	X17	Y17	Z17	X18	Y18	Z18	X19	Y19	Z19	X20	Y20	Z20	X21	Y21	Z21	X22	Y22	Z22	X23	Y23	Z23	

9559	79.650	374.69266	-146.77028	51.46624	364.35498	-150.20110	51.13214	344.63028	-156.95834	39.92452	320.57245	-168.74118	37.11682	292.63544	-187.02440	35.14457	268.40701	-207.40305	36.13282	239.37831	-226.91553	42.11283	205.00533	-253.52068	52.02821	175.00919	-279.73135	57.74170	351.49103	-164.87663	24.25301	343.75482	-178.22128	23.95017	342.44440	-180.53792	9.20272	343.45370	-141.59550	27.17065	342.39465	-130.54657	21.92606	349.94287	-121.78970	10.18096	298.05148	-195.51302	27.31190	311.04153	-207.13719	20.19617	301.00958	-218.02460	5.83345	311.96274	-213.88252	4.91132	285.48178	-180.89275	29.67525	279.24072	-165.08832	28.05772	264.31299	-177.94583	17.57014	260.22751	-168.52177	12.72186	
9560	79.658	379.58157	-143.30609	51.73462	369.28958	-146.80115	51.50290	349.71625	-153.56683	39.84779	325.74164	-165.75589	36.75044	296.86407	-183.21222	34.86419	271.49414	-201.49049	35.48682	241.97186	-220.19221	41.08431	206.90352	-246.15913	50.29140	176.11113	-271.73804	55.31706	357.37204	-160.86606	25.00954	351.27899	-174.99170	25.66823	354.08728	-177.12466	11.25912	347.21838	-138.71367	27.17006	344.25513	-128.48688	21.59235	349.76962	-120.35464	9.36474	301.72525	-192.26627	26.80602	312.67270	-206.19011	19.82014	301.05548	-217.25990	6.81267	312.04956	-213.71098	5.12599	290.90305	-176.34529	29.39548	288.29785	-159.53403	28.71957	271.78787	-168.01212	17.68932	270.55289	-157.86214	14.59294	
9561	79.667	383.96820	-139.98480	51.91980	373.71786	-143.54254	51.81424	354.31903	-150.42131	39.83070	330.38736	-162.99866	36.42920	300.78580	-179.44879	34.42175	274.25266	-195.45045	34.76759	243.96800	-212.92856	40.14151	208.06059	-237.81941	48.76345	176.43582	-262.60931	53.31934	362.72043	-157.14352	25.78084	358.51834	-171.93088	27.35056	365.22501	-172.91914	13.72056	350.59842	-136.28769	27.26202	345.62262	-127.07103	21.80969	349.46442	-119.25465	9.76943	304.91870	-189.06140	26.43742	313.80609	-204.80905	19.92278	301.13574	-216.18391	8.17223	312.10638	-213.29559	5.41819	295.86722	-172.05826	29.04038	296.92728	-154.79694	29.07234	279.68259	-157.87349	17.59299	281.78351	-147.62296	16.13969	
9562	79.675	387.87811	-136.91199	52.09305	377.65054	-140.53146	52.10173	358.43301	-147.59755	39.92007	334.54761	-160.53993	36.19929	304.39499	-175.91740	33.98195	276.74362	-189.49089	33.97809	245.54001	-205.33788	39.26063	208.56502	-228.59450	47.50252	175.97174	-252.06885	51.82420	367.51892	-153.76959	26.41452	365.25992	-169.02710	28.65226	375.06693	-168.01990	16.33727	353.79385	-134.21457	27.42767	346.92593	-126.12396	22.32754	349.65048	-118.14927	10.72069	307.67798	-185.97218	26.17809	314.65500	-203.06714	20.26413	301.20850	-214.76271	9.48073	312.11304	-212.72203	5.79720	300.40884	-168.10962	28.58971	304.79907	-150.89096	29.05723	288.10464	-148.19556	17.09049	293.40912	-138.60538	16.89353	
9563	79.683	391.38669	-134.21266	52.32003	381.14154	-137.75525	52.36842	362.06415	-145.08727	40.05082	338.24756	-158.33018	36.08191	307.70438	-172.65207	33.55254	279.03610	-183.80199	33.19575	246.83052	-197.60063	38.35505	208.58730	-218.49295	46.42328	174.82538	-239.92184	50.70075	371.75204	-150.83508	26.84845	371.47537	-166.28526	29.38169	383.15012	-162.74988	18.72425	356.83340	-132.41992	27.57330	348.42133	-125.46465	22.90605	350.73999	-116.81499	11.72986	310.11844	-183.02757	26.03162	315.38599	-201.04025	20.73780	301.25781	-212.99921	10.67306	312.03809	-211.88692	6.11701	304.48077	-164.54349	28.10187	311.57742	-147.73184	28.66909	296.79144	-139.58604	16.08903	304.74222	-131.18692	16.56276	
9564	79.692	394.50455	-131.84650	52.47840	384.23703	-135.27826	52.57139	365.24313	-142.86099	40.18938	341.50717	-156.33961	36.05949	310.67654	-169.60213	33.15113	281.15472	-178.53171	32.48079	247.98215	-189.92522	37.48717	208.31645	-207.61424	45.46908	173.24335	-226.09116	49.75956	375.54886	-148.37872	27.07285	377.17575	-163.61913	29.37087	389.58258	-157.51651	20.40578	359.70758	-130.80141	27.66787	350.05896	-124.90170	23.45113	352.53488	-115.13378	12.54935	312.29352	-180.23354	25.97211	316.08603	-198.82001	21.23071	301.33057	-211.01762	11.73770	311.87564	-210.80811	6.35863	308.11475	-161.30530	27.59037	317.18549	-145.05511	27.92608	305.09009	-132.59015	14.48970	314.82599	-125.38806	15.02700	
9565	79.700	397.32455	-129.86038	52.64938	387.00238	-133.13184	52.66684	368.07892	-140.85152	40.25904	344.38522	-154.51396	36.05247	313.21936	-166.78699	32.83577	283.11609	-173.69994	31.88719	249.15559	-182.38686	36.61724	208.05714	-196.02354	44.48624	171.54857	-210.76479	48.87280	378.97281	-146.30106	27.02777	382.44855	-160.96736	28.49276	394.74734	-152.69925	21.00846	362.16333	-129.30809	27.82360	351.74457	-124.30369	23.94311	354.40231	-114.19492	12.64617	314.21307	-177.57162	25.94769	316.74393	-196.51205	21.73453	301.44263	-208.90883	12.61314	311.73526	-209.59920	6.59811	311.28650	-158.34047	27.08295	321.64679	-142.59976	26.89466	312.32654	-127.38516	12.37319	323.01526	-121.06022	12.64423	
9566	79.708	399.86395	-128.15868	52.80167	389.46945	-131.27354	52.68205	370.58472	-139.07956	40.22628	346.90219	-152.80801	36.02674	315.26511	-164.11639	32.65265	284.97256	-169.27780	31.34775	250.39909	-175.04964	35.79735	208.09515	-183.94315	43.45016	170.26498	-194.27995	47.85051	382.10956	-144.48148	26.67833	387.29825	-158.28239	26.78395	398.85147	-148.38396	20.16373	364.42697	-127.87197	27.84447	353.47882	-123.62064	24.28053	355.82532	-114.10503	12.20446	315.92325	-175.01559	25.88200	317.36203	-194.17134	22.11996	301.64908	-206.73598	13.32005	311.65451	-208.29733	6.81352	314.01788	-155.58868	26.61018	325.10791	-140.24425	25.76795	317.93661	-123.91886	10.06084	328.98972	-117.99694	9.93172	
9567	79.717	402.11475	-126.66798	52.83542	391.69437	-129.69751	52.60186	372.83911	-137.47920	40.08887	349.05713	-151.17285	35.94460	317.10184	-161.62222	32.45523	286.72809	-165.21809	30.88337	251.75900	-167.88641	34.95699	208.67323	-171.59186	42.33413	169.88823	-177.07114	46.61256	384.96356	-142.83121	26.05436	391.52136	-155.58292	24.33149	402.12369	-144.76404	17.97364	366.49707	-126.50449	27.76677	355.23035	-122.85075	24.49534	356.40414	-115.07882	11.39216	317.45334	-172.55652	25.73656	317.91666	-191.83665	22.31326	301.91788	-204.53293	13.75301	311.66599	-206.90968	6.95952	316.46814	-153.05209	26.16497	327.87189	-137.93750	24.71531	321.64511	-121.87624	7.88411	332.79932	-115.88284	7.46764	
9568	79.725	404.17227	-125.36717	52.84630	393.73166	-128.32863	52.49311	374.88635	-136.01381	39.85951	350.90179	-149.57646	35.80224	318.73001	-159.27901	32.27660	288.36542	-161.44931	30.47131	253.22832	-160.93242	34.12028	209.94466	-159.22075	41.09596	170.78448	-159.64444	45.15117	387.43774	-141.35239	25.20912	394.90698	-153.15150	21.54620	404.57867	-141.88860	14.91802	368.43427	-125.18414	27.57017	357.00845	-122.01588	24.59179	356.29196	-116.95932	10.27931	318.82260	-170.22186	25.50188	318.41769	-189.55429	22.30771	302.29727	-202.40582	13.87354	311.80075	-205.51424	7.05433	318.60202	-150.68448	25.75238	330.15363	-135.68182	23.84667	323.65897	-120.78957	6.14983	334.88177	-114.54459	5.63946	
9569	79.733	406.03198	-124.21318	52.71040	395.60773	-127.15981	52.30724	376.71875	-134.69766	39.59122	352.46817	-147.99207	35.65304	320.26315	-157.08888	32.04295	289.88089	-157.98907	30.09272	254.80409	-154.25581	33.26348	211.98141	-147.10385	39.74628	173.14435	-142.43167	43.44586	389.51871	-140.04880	24.31888	397.37863	-151.16777	18.87683	406.28238	-139.78598	11.61667	370.25714	-123.88894	27.26175	358.74588	-121.09273	24.60936	355.85797	-119.03771	9.39419	320.05182	-168.01300	25.23424	318.86047	-187.33971	22.16257	302.67508	-200.16565	13.71022	311.98486	-203.97186	7.00889	320.42206	-148.49115	25.39827	332.00571	-133.53798	23.26702	324.48035	-120.26946	5.00926	335.75189	-113.74048	4.58897	
9570	79.742	407.73102	-123.18309	52.51544	397.31326	-126.16081	52.08115	378.37463	-133.52165	39.38507	353.81534	-146.43947	35.50412	321.59518	-155.01926	31.85376	291.25330	-154.83386	29.75932	256.46631	-148.00089	32.44674	214.74504	-135.54050	38.28156	176.93724	-125.76760	41.51616	391.23822	-138.95549	23.49608	398.95782	-149.74878	16.62759	407.29974	-138.44002	8.72049	372.01266	-122.61775	26.92965	360.40863	-120.08916	24.54313	355.41293	-120.63642	8.78780	321.13791	-165.91173	24.96198	319.29965	-185.20152	21.91820	303.04218	-197.92126	13.35136	312.20480	-202.38467	6.89252	321.93103	-146.46123	25.13226	333.61633	-131.46756	22.98023	324.66632	-120.04168	4.36413	335.97134	-113.26354	4.13665	
9571	79.750	409.32455	-122.31496	52.34832	398.90741	-125.24690	51.92377	379.84381	-132.45708	39.26613	355.01715	-144.91962	35.40068	322.88748	-153.08672	31.66933	292.47690	-151.98532	29.50575	258.18225	-142.24660	31.66098	218.11588	-124.77551	36.71236	182.02229	-109.93967	39.34029	392.61154	-138.07619	22.86952	399.85370	-148.90627	15.09556	407.83688	-137.72052	6.69016	373.63226	-121.43993	26.62869	361.92560	-119.02020	24.43791	355.15030	-121.51601	8.54198	322.09253	-163.90889	24.74520	319.74637	-183.16011	21.67172	303.44202	-195.78993	12.98357	312.46161	-200.84738	6.76105	323.15372	-144.54861	24.94401	335.00964	-129.54111	22.86108	324.67706	-119.93733	4.12416	336.01175	-112.98962	4.09295	
9572	79.758	410.76385	-121.53496	52.19592	400.34741	-124.42843	51.82093	381.10995	-131.47745	39.25420	356.07410	-143.45692	35.37763	323.88641	-151.22592	31.59178	293.51053	-149.38428	29.28668	259.88239	-137.05908	30.93198	221.92743	-114.98412	35.04707	188.18686	-95.26796	36.84439	393.73746	-137.40616	22.53332	400.31760	-148.50684	14.30185	408.09915	-137.49045	5.61901	375.16806	-120.29696	26.39826	363.32544	-117.90736	24.33520	355.36987	-121.26610	8.70674	322.93707	-162.03438	24.62134	320.22046	-181.22771	21.47293	303.90546	-193.81978	12.64560	312.71872	-199.41949	6.63774	324.23550	-142.75732	24.82797	336.20108	-127.74135	22.77581	324.70050	-119.94042	4.07416	336.00024	-112.88834	4.09100	
9573	79.767	412.01834	-120.78655	52.05908	401.62811	-123.69214	51.79139	382.22617	-130.52930	39.33704	357.07083	-142.06960	35.41093	324.78186	-149.51691	31.54027	294.38806	-146.99142	29.09235	261.52078	-132.42586	30.23036	226.00253	-106.23895	33.21544	195.13335	-82.06532	33.97375	394.66943	-136.88942	22.45842	400.57733	-148.35646	14.05992	408.29086	-137.54211	5.31434	376.52246	-119.27885	26.27751	364.55624	-116.82504	24.23322	355.77023	-120.70264	8.99406	323.66690	-160.30013	24.60558	320.66431	-179.43799	21.36372	304.34778	-192.08914	12.43481	312.97186	-198.12491	6.55022	325.15204	-141.06941	24.73310	337.17334	-126.04085	22.63037	324.73383	-119.96140	4.03729	335.96320	-112.83116	4.06748	
9574	79.775	413.13629	-120.08944	52.03806	402.75165	-122.98138	51.84493	383.17770	-129.66745	39.50378	357.95657	-140.77934	35.52680	325.45618	-147.91179	31.54372	295.11752	-144.78397	28.86752	263.04822	-128.32524	29.49158	230.16388	-98.59205	31.16946	202.52679	-70.54517	30.65799	395.47537	-136.43607	22.56060	400.80472	-148.28665	14.18744	408.42096	-137.58917	5.34147	377.74750	-118.34995	26.22118	365.64920	-115.81219	24.15712	356.33224	-119.91119	9.36939	324.30447	-158.71753	24.66656	321.11758	-177.80235	21.33463	304.78613	-190.58206	12.27241	313.20630	-196.97952	6.49974	325.98901	-139.51210	24.67211	337.89206	-124.44072	22.44503	324.70465	-119.93036	4.08672	335.89301	-112.81708	4.01920	
9575	79.783	414.07004	-119.41636	52.05244	403.72928	-122.34068	51.91133	384.02405	-128.87610	39.68481	358.73532	-139.58542	35.67920	326.07651	-146.46571	31.51448	295.72809	-142.79431	28.62635	264.45493	-124.76126	28.63869	234.25195	-92.05453	28.84775	210.04285	-60.82519	26.84170	396.20660	-135.98616	22.72685	400.99112	-148.16669	14.34610	408.53110	-137.56483	5.36958	378.94644	-117.42915	26.14118	366.67404	-114.92307	24.15707	357.03690	-118.97727	9.79816	324.85532	-157.27820	24.76431	321.52686	-176.32190	21.35387	305.20428	-189.31133	12.17220	313.42441	-195.98068	6.45557	326.75531	-138.09076	24.61370	338.42734	-122.94794	22.20510	324.67703	-119.89062	4.12380	335.80228	-112.82723	3.96661	
